<?xml version="1.0" encoding="UTF-8"?>
<svg id="Layer_1" xmlns="http://www.w3.org/2000/svg" viewBox="0 0 588.4 586.7">
  <defs>
    <style>
      .cls-1 {
        fill: #f47a7a;
      }

      .cls-2 {
        fill: #4b4b4d;
      }

      .cls-3 {
        fill: #d3e6f2;
      }

      .cls-4 {
        fill: #fdd05e;
      }

      .cls-5 {
        fill: #efcac2;
      }

      .cls-6 {
        fill: #208f55;
      }

      .cls-7 {
        fill: #88c69f;
      }
    </style>
  </defs>
  <polygon class="cls-5" points="524.57 143.99 523.67 139.77 523.67 139.77 522.98 137.85 521.1 134.31 519.91 132.69 518.58 131.21 517.1 129.83 515.49 128.59 513.74 127.47 511.87 126.46 509.89 125.58 507.8 124.83 505.59 124.18 503.27 123.64 500.85 123.2 498.32 122.87 495.68 122.65 492.94 122.53 490.09 122.51 487.13 122.58 484.07 122.75 480.9 123.02 477.62 123.39 474.24 123.86 470.75 124.42 467.17 125.08 463.47 125.83 459.68 126.68 455.78 127.63 451.78 128.67 447.68 129.81 443.48 131.04 439.18 132.37 441.23 138.76 445.44 137.46 449.55 136.25 453.54 135.14 457.44 134.13 461.22 133.21 464.9 132.39 468.47 131.66 471.92 131.03 475.26 130.49 478.48 130.04 481.58 129.7 484.56 129.44 487.42 129.28 490.16 129.21 492.78 129.23 495.27 129.34 497.62 129.54 499.84 129.83 501.94 130.2 503.89 130.66 505.71 131.19 507.39 131.8 508.93 132.49 510.34 133.24 511.62 134.06 512.76 134.94 513.78 135.89 514.69 136.91 515.49 137.99 516.18 139.15 516.77 140.4 517.24 141.74 517.9 144.83 518.08 148.32 517.74 152.19 516.87 156.46 515.47 161.07 513.55 166.01 511.1 171.26 508.13 176.78 504.66 182.56 500.7 188.59 496.27 194.84 491.37 201.3 486.02 207.95 480.22 214.79 474 221.78 467.37 228.93 460.34 236.21 452.92 243.61 445.12 251.13 436.96 258.74 428.46 266.43 419.61 274.19 410.44 282 400.95 289.85 391.17 297.74 381.09 305.63 370.75 313.54 367.4 316.02 367.4 324.39 374.81 318.89 385.22 310.94 395.36 302.98 405.22 295.05 414.77 287.13 424.02 279.26 432.94 271.44 441.52 263.67 449.76 255.99 457.64 248.4 465.14 240.91 472.27 233.54 478.99 226.29 485.31 219.18 491.2 212.23 496.67 205.43 501.69 198.81 506.26 192.38 510.36 186.14 513.98 180.1 517.11 174.27 519.73 168.67 521.83 163.28 523.39 158.12 524.39 153.19 524.8 148.47 524.57 143.99"/>
  <path class="cls-1" d="M267.95,218.48l3.69,5.62h0l-8.09,5.32-8.02,5.38-7.94,5.42-7.84,5.46-7.76,5.5-7.66,5.53-7.55,5.56-7.44,5.58-7.32,5.6-7.2,5.61-7.07,5.62-6.94,5.61-6.8,5.61-6.66,5.6-6.5,5.59-6.35,5.57-6.19,5.54-6.02,5.51-5.84,5.48-5.66,5.44-5.47,5.39-5.29,5.34-5.09,5.29-4.89,5.22-4.68,5.15-4.46,5.08-4.24,5-4.01,4.92-3.78,4.83-3.54,4.73-3.3,4.63-3.04,4.53-5.64-3.67,3.15-4.68,3.39-4.77,3.63-4.85,3.87-4.94,4.1-5.02,4.31-5.1,4.54-5.17,4.75-5.23,4.95-5.29,5.15-5.35,5.35-5.4,5.54-5.45,5.72-5.5,5.9-5.53,6.07-5.56,6.24-5.59,6.4-5.61,6.55-5.64,6.71-5.65,6.85-5.65,6.99-5.66,7.12-5.65,7.24-5.65,7.37-5.64,7.49-5.62,7.6-5.6,7.7-5.57,7.81-5.53,7.89-5.5,7.98-5.46,8.07-5.41,8.14-5.36h0ZM422.64,137.45l2.34,6.29-4.2,1.57-4.25,1.64-4.31,1.71-4.36,1.78-4.41,1.85-4.46,1.91-4.51,1.98-4.56,2.04-4.6,2.11-4.64,2.16-4.68,2.23-4.72,2.29-4.76,2.35-4.79,2.41-4.82,2.47-4.85,2.52-4.89,2.58-4.91,2.63-4.93,2.69-4.96,2.74-4.99,2.79-5,2.84-5.02,2.89-5.04,2.94-5.05,3-5.07,3.04-5.07,3.09-5.08,3.13-5.09,3.18-5.1,3.22-5.1,3.26-5.1,3.3-3.69-5.62,5.14-3.33,5.13-3.28,5.13-3.24,5.12-3.2,5.12-3.15,5.11-3.11,5.1-3.06,5.09-3.01,5.07-2.97,5.06-2.92,5.04-2.87,5.02-2.82,5-2.76,4.98-2.71,4.95-2.66,4.92-2.6,4.9-2.54,4.86-2.49,4.84-2.43,4.8-2.37,4.76-2.31,4.73-2.25,4.69-2.19,4.65-2.13,4.6-2.06,4.56-2,4.51-1.93,4.47-1.87,4.42-1.8,4.36-1.74,4.32-1.66,4.26-1.59h0Z"/>
  <circle class="cls-3" cx="212.46" cy="252.64" r="28.75"/>
  <circle class="cls-1" cx="428.09" cy="135.47" r="32.52"/>
  <path class="cls-2" d="M293.92,88.5c-117.85,0-213.85,90.87-213.85,202.2s95.99,202.68,213.85,202.68,213.07-90.87,213.07-202.68-95.22-202.2-213.07-202.2ZM293.92,485.76c-52.29,0-94.44-87.54-94.44-195.07s42.14-195.06,94.44-195.06,94.43,87.54,94.43,195.06-42.15,195.07-94.44,195.07h0Z"/>
  <path class="cls-6" d="M313.97,360.92l-3.69-5.62h0l1.65-1.08,1.65-1.08,1.65-1.08,1.64-1.08,1.65-1.09,1.65-1.1,1.64-1.09,1.64-1.1,1.63-1.1,1.63-1.11,1.63-1.11,1.63-1.11,1.63-1.11,1.62-1.11,1.62-1.12,1.62-1.12,1.61-1.12,1.62-1.13,1.62-1.13,1.61-1.13,1.61-1.13,1.61-1.14,1.6-1.14,1.6-1.14,1.6-1.15,1.6-1.15,1.59-1.15,1.58-1.15,1.58-1.15,1.58-1.15,1.58-1.16,1.57-1.16,4,5.4-1.58,1.17-1.59,1.16-1.59,1.16-1.59,1.16-1.6,1.16-1.6,1.16-1.6,1.15-1.61,1.15-1.61,1.15-1.61,1.15-1.62,1.15-1.61,1.14-1.62,1.14-1.62,1.13-1.62,1.13-1.63,1.13-1.63,1.13-1.63,1.12-1.64,1.13-1.64,1.12-1.64,1.12-1.64,1.11-1.64,1.11-1.65,1.11-1.65,1.11-1.65,1.11-1.65,1.1-1.65,1.1-1.66,1.09-1.66,1.09-1.66,1.08-1.66,1.08h0ZM58.25,440.23l6.42-1.96h0l1.14,2.73,1.58,2.33,2.06,2.01,2.58,1.73,3.13,1.42,3.69,1.11,4.25.77,4.79.4,5.29.03,5.78-.34,6.24-.72,6.68-1.09,7.1-1.46,7.5-1.83,7.89-2.19,8.24-2.55,8.59-2.9,8.92-3.25,9.24-3.59,9.52-3.93,9.81-4.26,10.06-4.59,10.31-4.91,10.54-5.23,10.76-5.55,10.95-5.85,11.13-6.16,11.3-6.45,11.45-6.74,11.58-7.03,11.69-7.31,11.8-7.59,3.69,5.62-11.87,7.63-11.77,7.36-11.66,7.07-11.53,6.79-11.38,6.49-11.22,6.2-11.04,5.9-10.85,5.59-10.64,5.28-10.41,4.96-10.17,4.64-9.92,4.31-9.65,3.98-9.36,3.64-9.06,3.3-8.75,2.96-8.42,2.6-8.08,2.24-7.72,1.88-7.36,1.52-6.97,1.13-6.58.76-6.18.36-5.77-.03-5.36-.46-4.94-.89-4.5-1.35-4.05-1.85-3.55-2.38-2.98-2.93-2.34-3.46-1.64-3.92h0ZM61.14,414l6.27,2.46-.33.86-.32.86-.3.84-.28.84-.27.82-.25.8-.23.8-.22.79-.2.77-.18.76-.17.75-.15.75-.14.73-.12.71-.1.7-.09.71-.07.67-.06.66-.04.65-.03.65v.63s0,.61,0,.61l.02.6.04.59.05.58.06.56.07.54.09.55.1.53.11.51.13.5.14.49-6.42,1.96-.2-.69-.18-.7-.16-.72-.14-.71-.12-.72-.1-.74-.08-.75-.06-.75-.04-.76-.03-.78v-.78s.01-.78.01-.78l.03-.79.05-.8.06-.81.09-.82.1-.81.12-.84.14-.85.16-.84.17-.85.19-.86.21-.87.23-.89.25-.89.26-.89.28-.91.3-.91.31-.92.33-.93.35-.94.36-.94h0Z"/>
  <path class="cls-7" d="M313.97,360.92l-3.69-5.62h0l1.65-1.08,1.65-1.08,1.65-1.08,1.64-1.08,1.65-1.09,1.65-1.1,1.64-1.09,1.64-1.1,1.63-1.1,1.63-1.11,1.63-1.11,1.63-1.11,1.63-1.11,1.62-1.11,1.62-1.12,1.62-1.12,1.61-1.12,1.62-1.13,1.62-1.13,1.61-1.13,1.61-1.13,1.61-1.14,1.6-1.14,1.6-1.14,1.6-1.15,1.6-1.15,1.59-1.15,1.58-1.15,1.58-1.15,1.58-1.15,1.58-1.16,1.57-1.16,4,5.4-1.58,1.17-1.59,1.16-1.59,1.16-1.59,1.16-1.6,1.16-1.6,1.16-1.6,1.15-1.61,1.15-1.61,1.15-1.61,1.15-1.62,1.15-1.61,1.14-1.62,1.14-1.62,1.13-1.62,1.13-1.63,1.13-1.63,1.13-1.63,1.12-1.64,1.13-1.64,1.12-1.64,1.12-1.64,1.11-1.64,1.11-1.65,1.11-1.65,1.11-1.65,1.11-1.65,1.1-1.65,1.1-1.66,1.09-1.66,1.09-1.66,1.08-1.66,1.08h0ZM238.78,405.54l-3.18-5.92,2.29-1.22,2.29-1.24,2.31-1.25,2.3-1.26,2.31-1.27,2.32-1.28,2.31-1.29,2.32-1.31,2.33-1.31,2.32-1.32,2.33-1.33,2.33-1.35,2.34-1.36,2.33-1.36,2.34-1.38,2.34-1.38,2.34-1.39,2.34-1.41,2.34-1.41,2.35-1.42,2.35-1.43,2.35-1.44,2.35-1.45,2.34-1.46,2.36-1.47,2.35-1.48,2.34-1.48,2.35-1.5,2.35-1.5,2.35-1.51,2.35-1.51,2.34-1.53,3.69,5.62-2.37,1.53-2.36,1.53-2.36,1.52-2.36,1.51-2.37,1.5-2.37,1.5-2.37,1.48-2.36,1.48-2.37,1.47-2.37,1.46-2.36,1.45-2.36,1.44-2.36,1.43-2.36,1.42-2.36,1.41-2.36,1.41-2.36,1.39-2.35,1.38-2.36,1.37-2.35,1.36-2.35,1.36-2.34,1.34-2.34,1.34-2.34,1.32-2.33,1.31-2.33,1.31-2.33,1.29-2.32,1.28-2.32,1.27-2.32,1.26-2.31,1.25-2.31,1.24h0Z"/>
  <polygon class="cls-4" points="392.15 304.9 387.98 299.63 391.73 296.66 395.45 293.69 399.12 290.72 402.76 287.75 406.35 284.78 409.9 281.82 413.41 278.86 416.88 275.91 420.3 272.96 423.68 270.02 427.01 267.09 430.3 264.16 433.54 261.25 436.73 258.34 439.87 255.44 442.96 252.55 446 249.68 449 246.82 451.93 243.97 454.82 241.13 457.66 238.31 460.44 235.51 463.16 232.72 465.83 229.94 468.44 227.19 471 224.46 473.49 221.74 475.93 219.04 478.31 216.36 480.63 213.71 482.89 211.07 485.08 208.46 490.26 212.75 488.02 215.41 485.72 218.1 483.37 220.79 480.95 223.51 478.47 226.25 475.94 229.01 473.35 231.79 470.7 234.58 468 237.39 465.24 240.21 462.42 243.05 459.56 245.9 456.65 248.77 453.67 251.65 450.65 254.54 447.58 257.44 444.45 260.36 441.28 263.28 438.06 266.22 434.8 269.16 431.48 272.11 428.12 275.07 424.72 278.03 421.27 281 417.77 283.98 414.24 286.96 410.66 289.94 407.04 292.93 403.38 295.92 399.67 298.91 395.93 301.91 392.15 304.9"/>
  <circle class="cls-7" cx="218.07" cy="416.81" r="41.32"/>
  <circle class="cls-4" cx="381.45" cy="312.49" r="53.76"/>
  <circle class="cls-5" cx="508.07" cy="188.12" r="37.33"/>
  <circle class="cls-6" cx="77.85" cy="384.33" r="35.67"/>
</svg>