<?xml version="1.0" encoding="UTF-8"?>
<svg id="Layer_1" xmlns="http://www.w3.org/2000/svg" viewBox="0 0 414 412.8">
  <defs>
    <style>
      .cls-1 {
        fill: #70627f;
      }
    </style>
  </defs>
  <path class="cls-1" d="M102,270.22c0-2.52,0-5.03,0-7.55.13-.38.33-.76.39-1.15.91-6.09,3.29-11.57,7.33-16.19,2.36-2.69,5.17-4.98,7.81-7.48.03.04-.03-.11-.13-.19-4.03-3.14-5.45-6.94-4.16-11.13,1.33-4.31,4.78-6.72,9.84-7.05.79-.05,1.74-.53,2.26-1.12,4.64-5.27,4.93-13.28.83-19-.98-1.37-2.02-2.16-3.91-2.21-5.51-.15-9.52-4.56-9.43-10,.09-5.37,4.35-9.51,9.9-9.56,3.57-.03,7.14,0,10.71-.01.5,0,1.01-.1,1.75-.18-.59-.53-.95-.85-1.31-1.18-.36-.33-.73-.65-1.08-.99-7.34-7.27-10.61-16.09-9.13-26.27,2.31-15.8,15.13-26.67,31.15-26.69,38.7-.05,77.4-.02,116.1-.01,6.08,0,10.4,4,10.49,9.62.09,5.66-4.05,9.73-10.1,10.09-.85.05-1.89.54-2.45,1.17-4.73,5.41-4.87,13.62-.48,19.34.91,1.19,1.88,1.77,3.48,1.8,5.73.12,9.88,4.8,9.52,10.52-.06.95-.25,1.89-.38,2.83,13.33,2.21,22.8,9.19,26.69,22.19,3.88,12.99-.31,23.94-10.56,33.12,1.02,0,1.64,0,2.25,0,2.38,0,4.76-.05,7.14.01,5.59.15,8.72,3.42,10.49,8.37v4.19c-.13.23-.31.45-.39.7-1.71,5-5.22,7.5-10.51,7.74-.96.04-2.15.61-2.79,1.32-4.83,5.37-5.56,13.58-1.86,19.87,1.36,2.32,2.79,4.6,6.11,3.97.26-.05.55.08.82.13,4.63.89,7.12,4.01,8.62,8.18v4.19c-.12.17-.28.32-.34.5-1.85,5.4-5.27,7.87-10.97,7.89-3.5.01-6.99,0-10.49,0-53.01,0-106.01.02-159.02,0-15.97,0-29.14-10.05-33.11-25.12-.4-1.54-.72-3.1-1.08-4.64ZM237.06,239.2h-2.73c-21.62,0-43.24,0-64.87,0-11.34,0-22.67-.09-34.01.02-17.75.18-30.58,16.83-26.32,34,3.02,12.17,13.96,20.47,27.12,20.48,56.33.02,112.66,0,168.99,0,.56,0,1.12.03,1.68-.04,2.14-.26,3.73-2.01,3.75-4.1.02-2.08-1.53-3.88-3.67-4.18-.69-.1-1.4-.05-2.1-.05-13.44,0-26.87,0-40.31,0-.63,0-1.27.05-1.89-.04-1.75-.26-2.81-1.29-2.82-3.08-.02-1.8,1.05-2.82,2.78-3.12.61-.11,1.26-.04,1.89-.04,9.8,0,19.59,0,29.39,0h2.39c-4.79-8.57-4.64-16.82-.12-25.06h-14.93c0,3.57.02,7.04,0,10.52-.02,3.64-2.11,4.95-5.34,3.31-4.73-2.41-9.5-4.75-14.13-7.34-1.86-1.04-3.29-1.07-5.15-.03-4.76,2.64-9.64,5.09-14.5,7.54-2.78,1.4-4.92.08-5.01-2.99-.03-.91,0-1.82,0-2.72,0-2.76,0-5.53,0-8.38h-2.84c-32.26,0-64.52,0-96.78,0-.84,0-1.68-.02-2.52.03-8.09.48-13.73,8.3-11.55,16.02,1.59,5.63,6.54,9.11,13.05,9.11,37.37,0,74.73,0,112.1,0,.7,0,1.41-.06,2.1.05,1.75.28,2.81,1.36,2.79,3.12-.02,1.75-1.07,2.84-2.84,3.07-.76.1-1.54.04-2.31.04-36.95,0-73.89,0-110.84,0-1.05,0-2.1.01-3.15-.04-10.96-.57-19.35-11.09-17.4-21.8,1.73-9.51,9.51-15.88,19.51-15.89,32.68-.02,65.36,0,98.03,0h2.54v-8.38ZM261.86,141.9h-2.85c-28.69,0-57.39,0-86.08,0-.7,0-1.41.04-2.1-.04-1.85-.22-2.98-1.48-2.95-3.19.03-1.73,1.2-2.9,3.08-3.03.7-.05,1.4-.02,2.1-.02,32.26,0,64.52,0,96.78,0,.9,0,1.84.02,2.7-.21,1.78-.48,2.66-1.74,2.55-3.59-.12-1.86-1.23-2.92-3.02-3.22-.75-.13-1.54-.06-2.31-.06-22.39,0-44.79,0-67.18,0-16.24,0-32.47-.11-48.71.05-15.91.16-27.37,15.34-23.4,30.7,2.86,11.03,12.56,18.29,24.6,18.3,38.42.02,76.84,0,115.26,0,.56,0,1.13.03,1.68-.05,1.84-.27,3.05-1.62,3.09-3.4.04-1.87-1.2-3.33-3.12-3.59-.69-.09-1.4-.04-2.1-.04-21.62,0-43.25,0-64.87,0-17.15,0-34.29.12-51.44-.09-7.41-.09-12.77-4.03-15.53-10.86-2.74-6.76-1.43-13.04,3.55-18.42,4.47-4.82,10.25-5.91,16.51-5.51,2.01.13,3.32,1.25,3.4,2.99.08,1.77-1.31,3.17-3.36,3.28-1.4.07-2.8-.02-4.2.05-4.25.22-7.49,2.19-9.56,5.87-4.25,7.56,1.36,16.39,10.45,16.39,35.06.03,70.12.01,105.18,0,.52,0,1.04-.08,1.75-.14-3.84-7.37-3.87-14.6.07-22.16ZM237.11,215.7c-.92,0-1.67,0-2.42,0-6.09,0-12.17.02-18.26-.01-2.31-.01-3.64-1.22-3.64-3.15,0-1.95,1.3-3.12,3.64-3.12,20.43-.01,40.85-.01,61.28,0,2.44,0,3.55,1.16,3.6,3.62.03,1.93,0,3.87,0,5.84,4.39-1.05,7.71-5.09,7.98-9.55.44-6.98-4.66-12.09-12.19-12.09-47.5-.01-95,0-142.5,0-.64,0-1.29.08-2.14.13,3.88,7.46,3.81,14.69.04,21.99h104.6v-3.66ZM281.4,232.52c.63-.04,1.19-.02,1.72-.12,10.68-2,19.15-11.84,19.58-22.71.56-14.24-10.61-25.81-24.99-25.82-51.28-.02-102.56,0-153.83,0-.49,0-.98-.03-1.47.02-1.86.19-3.13,1.47-3.24,3.24-.12,1.87,1.05,3.4,2.95,3.72.82.14,1.67.09,2.51.09,50.3,0,100.6,0,150.9,0,1.05,0,2.1-.03,3.15.04,7.29.49,12.66,4.02,15.53,10.67,2.88,6.69,1.65,12.98-3.16,18.5-2.56,2.93-5.9,4.57-9.63,5.45v6.92ZM274.89,260.17v-44.35h-31.25v44.31c4.37-2.26,8.57-4.31,12.64-6.58,2.07-1.15,3.82-1.15,5.88,0,4.13,2.29,8.37,4.37,12.73,6.62ZM237.08,225.82c-.91,0-1.66,0-2.41,0-36.79,0-73.58,0-110.38,0-.83,0-1.71-.05-2.5.17-1.75.48-2.71,1.68-2.64,3.54.08,1.87,1.17,2.94,2.93,3.3.67.14,1.39.07,2.09.07,36.86,0,73.72,0,110.59,0h2.3v-7.09ZM281.36,247.58h1.82c7.48,0,14.96,0,22.45,0,3.15,0,5.13-1.71,5.07-4.3-.07-2.52-1.97-4.07-5.06-4.08-7.48-.01-14.96,0-22.45,0-.6,0-1.19.08-1.82.12v8.25Z"/>
</svg>