<?xml version="1.0" encoding="UTF-8"?>
<svg id="Layer_1" xmlns="http://www.w3.org/2000/svg" viewBox="0 0 414 412.8">
  <defs>
    <style>
      .cls-1 {
        fill: #3e5c68;
      }
    </style>
  </defs>
  <path class="cls-1" d="M352.17,341.15c-1.21,2.03-2.83,3.44-5.33,2.62-2.5-.82-2.84-2.95-2.83-5.28.03-19.55.04-39.1,0-58.64-.02-9.3-5.07-16.54-13.31-19.36-24.97,34.26-74.96,34.1-100.14.05-7.09,2.22-12.69,8.91-13.07,16.33-.36,6.77-.24,13.57-.26,20.35-.03,13.39,0,26.79-.01,40.18,0,4.73-1.2,6.61-4.15,6.56-2.85-.05-4-1.89-4-6.43,0-18.55.12-37.11-.05-55.66-.1-11.01,3.57-19.96,12.86-26.27.21-.14.35-.4.59-.69-2.89-4.35-4.36-9.06-3.46-14.35.84-4.88,3.2-8.83,7.19-11.69,1.43-1.02,2.21-2.03,2.36-3.85.33-4.02,2.12-7.39,5.09-10.18.64-.6,1.11-1.85,1-2.72-.72-5.56-2.68-10.62-5.13-15.74-9.7-20.31-8.19-40.28,5.03-58.45,13.49-18.54,32.35-26.36,55.08-22.82,25.91,4.04,44.98,24.42,47.72,50.24,1.34,12.58-1.15,24.54-7.92,35.34-2.45,3.91-1.57,8.45-3.11,12.49-.13.35.68,1.18,1.18,1.65,3.05,2.82,4.79,6.24,5.22,10.4.11,1.03.66,2.32,1.45,2.92,8.95,6.89,10.82,16.47,4.96,26.05-.14.23-.23.49-.43.92,4.84,3.15,8.73,7.24,10.98,12.63,1.03,2.47,1.67,5.12,2.48,7.68v65.72ZM325.28,190.74c.37-.71.65-1.15.84-1.62,3.24-8.18,4.07-16.61,2.78-25.29-4.49-30.25-36.17-49.1-64.84-38.56-29.77,10.96-41.48,45.78-24.51,72.69,1.01,1.6,1.7,3.61,1.87,5.49.84,9.09,4.3,17.03,10.56,23.56,10.58,11.02,23.62,14.97,38.37,11.19,15-3.84,24.36-13.94,28.45-28.81,1.97-7.17,1.32-14-3.98-19.76-1.01-1.1-2.31-1.94-3.47-2.89-.08,1.03.24,1.57.53,2.13,2.55,4.95,2.35,9.84-.84,14.36-3.11,4.41-7.57,6.46-12.96,5.68-5.7-.82-9.5-4.15-11.29-9.66-1.04-3.22-2.95-4.67-6.28-4.61-3.32.05-5.14,1.43-6.03,4.57-2.04,7.15-9.74,11.4-16.91,9.33-7.33-2.12-11.54-9.88-9.26-17.12,1.57-5,4.98-8.22,10.02-9.31,5.24-1.14,9.78.43,13.46,4.47.62.68,2.04,1.31,2.79,1.06,4.11-1.38,8.11-1.42,12.19.09.59.22,1.75.04,2.08-.39,2.5-3.27,5.85-5.02,9.9-5.82-12.45-3.88-25.2-6.65-35.45-13.4-4.78,3.9-8.99,7.54-13.44,10.87-2.52,1.88-5.07,1.34-6.37-.77-1.33-2.15-.61-4.46,2.18-6.06,4.92-2.82,8.63-6.78,11.59-11.55,2.17-3.5,4-3.54,7.64-1.49,5.55,3.14,11.18,6.28,17.1,8.6,6.28,2.46,12.95,3.93,19.44,5.87,9.84,2.94,18.81,7.14,23.85,17.17ZM322.55,257.05c-2.55-1.02-5.13-1.88-7.53-3.09-2.04-1.03-3.29-.62-4.9.95-7.37,7.25-16.3,11.2-26.62,11.83-12.9.79-23.94-3.44-33.18-12.48-.55-.54-1.65-1.13-2.23-.93-3.17,1.11-6.26,2.46-9.46,3.76,22.65,28.78,63.64,26.81,83.92-.05ZM303.58,249.77c-1.55-1.35-3.04-2.79-4.69-4.01-.7-.51-1.89-.97-2.62-.73-10.5,3.51-20.94,3.51-31.41-.08-.58-.2-1.52-.27-1.91.06-1.81,1.53-3.49,3.21-5.22,4.84,11.9,11.89,34.8,11.8,45.85-.08ZM305.13,240.81c1.47.8,2.43,1.45,3.47,1.87,6.69,2.71,13.44,5.28,20.09,8.1,1.88.8,2.79.19,3.77-1.21,3.58-5.14,1.91-12.25-3.81-14.97-3.22-1.53-4.77-3.42-4.15-7.15.28-1.67-.52-3.53-.83-5.3-.29-.04-.57-.07-.86-.11-4.18,7.67-9.9,13.91-17.67,18.77ZM237.78,221.75c-.46,2.03-1.46,3.87-1.11,5.4.95,4.09-.95,5.92-4.29,7.55-5.62,2.74-7.15,10.09-3.45,15.07,1.01,1.36,1.93,1.7,3.61,1,6.66-2.79,13.41-5.38,20.1-8.09,1.04-.42,1.97-1.08,2.99-1.64-3.39-2.99-6.8-5.55-9.65-8.62-2.87-3.08-5.19-6.68-8.21-10.65ZM255.88,195.41c.01,2.99,2.54,5.53,5.48,5.51,2.91-.02,5.52-2.65,5.51-5.56-.01-2.94-2.59-5.48-5.55-5.47-2.99,0-5.45,2.5-5.44,5.52ZM294.44,195.45c.03,3,2.58,5.51,5.52,5.47,2.92-.05,5.51-2.7,5.47-5.6-.04-2.95-2.64-5.47-5.6-5.43-2.99.03-5.43,2.55-5.39,5.57Z"/>
  <path class="cls-1" d="M74.12,236.86c2.1-7.87,6.79-13.21,14.88-15.23.79-.2,1.56-.45,2.34-.69,6.49-1.95,12.94-4.05,19.48-5.78,3.05-.81,5.16-2.17,6.18-5.22.86-2.56,2.47-4.4,5.62-4.18.28-.38.56-.77.84-1.15-.88-.41-1.9-.66-2.63-1.26-9.97-8.16-15.81-18.62-17.45-31.43-.11-.83-.7-1.93-1.38-2.29-8.73-4.63-10.84-10.11-7.39-19.86-4.4-2.71-7.4-6.49-8.2-11.77-.88-5.85,1.07-10.71,5.47-14.52,1.29-1.12,1.85-2.09,1.71-3.86-.74-9.25,7.43-16.2,16.54-14.33,1.12.23,2.72,0,3.58-.69,7.86-6.26,16.74-9.64,26.78-9.6,8.95.03,17.92-.02,26.83.69,7.16.56,13.51,3.88,19.09,8.41,1.52,1.23,2.79,1.69,4.82,1.24,8.91-1.99,17.15,5.63,16.19,14.69-.09.84.17,2.04.73,2.58,9.53,9.21,8.95,19.2-1.5,27.05.48,2.63,1.34,5.18,1.31,7.71-.07,5.76-3.46,9.44-8.35,12.05-.92.49-1.94,1.67-2.06,2.65-1.67,12.93-7.65,23.39-17.73,31.57-.49.4-.94.84-1.37,1.3-.1.1-.05.34-.1.77,3.4-.22,4.9,2.07,5.9,4.78.92,2.51,2.6,3.75,5.19,4.46,6.88,1.89,13.67,4.09,20.5,6.16.69.21,1.4.38,2.08.62,2.76.98,3.98,3.04,3.2,5.4-.7,2.16-2.91,3.15-5.57,2.37-4.77-1.39-9.51-2.86-14.27-4.3-.68-.21-1.38-.37-2.26-.61-.37.74-.76,1.43-1.07,2.15-8.1,19.24-20.63,34.93-37.65,47.02-3.41,2.42-4.41,2.43-7.75.07-16.89-11.96-29.27-27.55-37.43-46.53-.39-.9-.82-1.78-1.34-2.9-7.19,2.23-14.27,4.43-21.89,6.8,5.86,5.86,11,11.21,16.38,16.3,6.17,5.83,8.9,12.78,8.82,21.31-.22,22.9-.07,45.8-.08,68.7,0,.99.05,2-.1,2.98-.3,2.03-1.5,3.26-3.58,3.43-2.06.17-3.56-.75-4.1-2.77-.3-1.11-.35-2.32-.35-3.48-.02-23.17-.1-46.34.05-69.51.04-5.84-1.84-10.5-6.02-14.5-4.83-4.62-9.45-9.46-14.77-14.81v3.52c0,31.41,0,62.81,0,94.22,0,.63-.02,1.27,0,1.9.1,2.33-.32,4.46-2.82,5.28-2.5.82-4.12-.59-5.33-2.62v-104.28ZM118.72,111.23c3.1,5.79,2.74,11.17-1.18,16.35-.48.63-.27,2.03.02,2.95,2.06,6.36.1,13.53-5.3,17.49-2.13,1.56-4.78,2.45-7.24,3.52-2.76,1.2-4.1,3.08-3.82,5.85.27,2.72,2.01,4.1,4.51,4.75q5.14,1.33,5.59,6.63c.06.72.14,1.44.21,2.16,2.11,19.83,19.77,35.41,39.51,34.87,20.89-.58,37.78-16.82,38.72-37.25.22-4.82.57-5.24,5.24-6.33,3.62-.84,5.49-3.44,4.74-6.65-.64-2.75-2.75-3.8-5.21-4.54-7.85-2.35-12.69-8.97-11.61-16.98.52-3.85.5-6.94-1.57-10.46-2.32-3.94-1.24-8.39.95-12.38-5.93-4.83-12.46-7.7-19.94-7.92-7.23-.21-14.47-.19-21.7-.14-8.15.06-15.39,2.74-21.9,8.09ZM155.1,237.27c-.19.07-.38.14-.57.21,0,4.95.03,9.91-.01,14.86-.02,3.06-1.48,4.8-3.92,4.88-2.52.08-4.14-1.77-4.2-4.92-.05-2.8-.01-5.61-.01-8.41,0-2.16,0-4.33,0-7.27-1.22,1.6-1.88,2.46-2.53,3.32-4.7,6.19-10.86,6.27-15.79.19-2.49-3.07-4.94-6.16-7.41-9.24-.18.15-.35.3-.53.44,7.27,14.11,17.4,25.79,30.36,35.22,13.14-9.57,23.4-21.4,30.44-35.96-3.02,3.31-5.76,6.86-8.62,10.3-4.21,5.06-10.51,4.94-14.61-.21-.89-1.12-1.73-2.27-2.59-3.41ZM190.48,135.39c.31,3.99,3.07,7.32,6.82,7.98,3.9.68,7.64-1.59,8.9-5.41,1.21-3.66-.41-7.54-3.92-9.38-4.91-2.57-4.96-2.7-3.23-8.14.86-2.71-.42-5.68-2.93-6.79-2.5-1.11-5.43-.22-6.87,2.08-1.61,2.57-1.03,5.47,1.47,7.43,3.78,2.95,3.89,3.89,1.39,8.04-.76,1.27-1.1,2.79-1.64,4.2ZM103.11,143.45c2.26-.08,4.63-1.43,6.09-4.07,1.46-2.64,1.41-5.36-.17-7.98-2.78-4.6-2.71-5.04,1.43-8.4,2.34-1.91,2.84-4.74,1.27-7.26-1.45-2.32-4.37-3.22-6.87-2.1-2.52,1.12-3.79,4.05-2.96,6.81q1.67,5.56-3.24,8.15c-3.31,1.75-4.95,5.35-4.04,8.86.94,3.63,4.01,6.01,8.49,6ZM156.69,225.77c2.8,3.73,5.46,7.28,8.37,11.16,4.39-5.48,8.23-10.62,12.44-15.43,2.02-2.31,1.73-3.96-.17-6.06-6.84,3.42-13.6,6.8-20.64,10.32ZM123.65,215.45c-2.15,2.31-1.9,4.04-.08,6.14,3.61,4.15,6.92,8.58,10.37,12.87.58.73,1.27,1.37,2.12,2.28,2.87-3.84,5.49-7.34,8.22-10.98-7.06-3.53-13.82-6.91-20.64-10.31ZM134.59,211.78c5.04,2.53,10.07,5.08,15.14,7.56.42.21,1.12.21,1.54,0,5.43-2.67,10.82-5.4,16.23-8.12-10.95,3.6-21.84,3.6-32.91.56Z"/>
  <path class="cls-1" d="M189.79,302.32c0-11.58.07-23.16-.02-34.74-.06-7.46,2.44-13.77,7.77-18.99,2.46-2.4,4.83-4.9,7.3-7.28,2.19-2.11,4.49-2.29,6.24-.63,1.81,1.72,1.64,4.18-.55,6.45-2.33,2.4-4.68,4.79-7.11,7.09-3.83,3.64-5.54,8.03-5.52,13.33.08,23.34.03,46.68.03,70.02,0,.81.05,1.63-.04,2.44-.24,2.41-1.83,3.93-4.02,3.94-2.2,0-3.86-1.51-4.03-3.92-.14-1.89-.05-3.8-.05-5.7,0-10.67,0-21.35,0-32.02Z"/>
  <path class="cls-1" d="M233.2,313.16c0-8.31-.01-16.63,0-24.94,0-3.41,1.49-5.26,4.09-5.23,2.51.03,4.03,1.84,4.04,5.06.02,16.99.03,33.97,0,50.96,0,3.19-1.58,4.98-4.14,4.94-2.55-.03-3.94-1.78-3.99-5.05,0-.54,0-1.08,0-1.63,0-8.04,0-16.08,0-24.12Z"/>
  <path class="cls-1" d="M319.97,313.48c0-8.13,0-16.26,0-24.39,0-.99-.27-2.26.23-2.91.93-1.24,2.28-2.88,3.55-2.96,1.27-.08,2.91,1.31,3.9,2.47.62.74.45,2.24.45,3.4.02,16.26.02,32.52.01,48.79,0,.81,0,1.63-.14,2.43-.42,2.48-1.97,3.82-4.24,3.63-2.34-.2-3.53-1.61-3.71-3.89-.07-.81-.05-1.62-.05-2.44,0-8.04,0-16.08,0-24.12Z"/>
  <path class="cls-1" d="M278.05,223.4c-2.66-.06-6.61-2.17-9.81-5.77-1.75-1.97-1.73-4.15-.06-5.8,1.6-1.58,3.84-1.52,5.81.17,5.35,4.58,7.79,4.57,13.32-.07,1.94-1.63,4.26-1.64,5.82-.03,1.47,1.52,1.45,3.81-.05,5.63-3.14,3.8-8.07,6.09-15.03,5.87Z"/>
  <path class="cls-1" d="M150.37,189.72c-5-.06-9.03-2.2-12.28-5.89-1.62-1.83-1.64-4.02-.16-5.61,1.55-1.67,3.87-1.72,5.8-.1.76.64,1.42,1.4,2.22,1.97,2.92,2.11,6.69,1.98,9.51-.32.7-.57,1.3-1.26,2-1.81,1.86-1.47,4.14-1.38,5.58.26,1.55,1.75,1.53,3.63.04,5.38-3.33,3.89-7.5,6.12-12.72,6.11Z"/>
  <path class="cls-1" d="M127.25,159.2c-.07-4.4,1.17-6.39,3.93-6.42,2.77-.03,4.16,2.07,4.14,6.35,0,1.07-.04,2.16-.23,3.21-.39,2.17-1.85,3.35-3.97,3.28-2.24-.08-3.64-1.4-3.85-3.73-.08-.89-.01-1.8-.01-2.69Z"/>
  <path class="cls-1" d="M173.95,159.88c-.1.7.13,2.27-.55,3.1-.96,1.18-2.64,2.56-3.91,2.46-1.26-.09-2.96-1.69-3.46-3-.62-1.67-.33-3.72-.23-5.6.13-2.4,1.74-4.09,3.86-4.04,2.41.07,3.78,1.46,4.12,3.83.12.89.1,1.79.17,3.25Z"/>
</svg>