<?xml version="1.0" encoding="UTF-8"?>
<svg id="Layer_1" xmlns="http://www.w3.org/2000/svg" viewBox="0 0 414 412.8">
  <defs>
    <style>
      .cls-1 {
        fill: #43604c;
      }
    </style>
  </defs>
  <path class="cls-1" d="M96.16,230.62c0-13.25-.09-26.34.08-39.42.03-2.38.6-5,1.75-7.06,2.22-4,6.06-5.68,10.59-4.94,15.7,2.56,31.37,5.26,47.06,7.91.43.07.86.12,1.75.25-.6-.82-.93-1.37-1.35-1.83-6.21-6.95-10.2-15.03-12.04-24.14-.33-1.61-.84-2.14-2.52-2.19-9.18-.25-16.71-5.98-19.18-14.42-2.5-8.53.69-17.4,8.28-22.53,1.31-.88,1.66-1.79,1.65-3.23-.06-5.04-.07-10.08,0-15.13.14-10.74,8.27-19.2,19.02-19,7.48.14,13.92-1.48,20.74-4.97,17.8-9.1,35.52-7.34,52.36,3.46,1.18.75,2.72,1.21,4.12,1.29,3.71.2,7.43-.01,11.14.17,9.89.49,17.73,8.59,17.94,18.51.11,5.31-.04,10.62.1,15.92.02.94.65,2.19,1.41,2.73,7.71,5.57,10.95,14.17,8.43,22.78-2.51,8.53-10.06,14.15-19.45,14.47-.52.02-1.04.07-1.79.13-1.88,10.49-6.36,19.73-14.22,28.06,6.44-1.08,12.13-2.04,17.82-3,10.28-1.73,20.56-3.53,30.85-5.17,7.27-1.16,12.85,3.66,12.9,11.14.08,12.65.02,25.3.02,37.95,0,.7,0,1.4,0,2.21,1.38.5,2.73.87,3.97,1.47,6.06,2.94,9.69,7.79,10.09,14.49.37,6.17.46,12.4-.02,18.56-.66,8.48-5.82,13.52-14.04,15.88,0,6.22,0,12.49,0,18.76,0,9.05-4.73,14.53-13.64,16.04-27.8,4.69-55.57,9.55-83.41,13.96-4,.63-8.37-.72-12.53-1.42-24.75-4.14-49.49-8.4-74.24-12.53-8.68-1.45-13.62-6.99-13.64-15.78-.01-6.1-.01-12.21-.02-18.31,0-.17-.06-.35-.13-.75-.45-.16-1-.37-1.56-.55-7.64-2.51-12.27-8.56-12.48-16.62-.14-5.3-.14-10.62,0-15.92.22-8.52,4.86-14.12,14.19-17.23ZM287.22,230.43c0-13.75.06-27.09-.04-40.44-.02-3.33-2.36-4.98-5.81-4.41-15.34,2.55-30.68,5.14-46.01,7.74-12.36,2.09-24.71,4.22-37.13,6.35v123.46c10.46-1.77,20.74-3.51,31.02-5.24,16.9-2.86,33.81-5.7,50.7-8.6,4.57-.78,7.22-4.03,7.28-8.72.04-3.8,0-7.61,0-11.41,0-2.62,0-5.24,0-7.98-1.54,0-2.69.04-3.83,0-7.11-.3-12.24-5.19-12.4-12.29-.19-8.75-.21-17.52,0-26.27.18-7.2,5.49-12.07,12.75-12.19,1.05-.02,2.1,0,3.46,0ZM191.51,323.12v-123.48c-3.92-.67-7.66-1.32-11.41-1.95-23.87-4.03-47.74-8.08-71.62-12.09-3.82-.64-5.93,1.15-5.94,5.09-.04,12.74-.02,25.47-.01,38.21,0,.42.09.84.16,1.51,1.24,0,2.37-.03,3.5,0,7.24.23,12.42,5.15,12.57,12.39.19,8.66.19,17.34,0,26-.15,7.12-5.22,12.01-12.33,12.36-1.21.06-2.43,0-3.9,0,0,6.55-.02,12.81,0,19.06.02,5.27,2.72,8.32,7.99,9.18,4.8.78,9.59,1.59,14.38,2.41,22.12,3.75,44.25,7.51,66.61,11.3ZM240.27,135.18c1.62-19.68-3.72-36.2-20.68-47.07-16.35-10.48-33.43-10.39-49.68.15-16.78,10.88-22.09,27.35-20.42,46.93,2.08,0,4.11-.14,6.1.04,1.98.17,2.86-.47,3.59-2.43,4.19-11.26,19.13-14.19,26.38-4.68,3.04,3.99,5.7,4.76,10.25,4.75,3.66,0,6.12-.21,7.35-3.91.08-.24.31-.42.48-.63,7.84-9.52,22.71-6.94,27.14,4.68.32.83,1.13,1.99,1.81,2.06,2.51.25,5.07.1,7.68.1ZM149.3,141.56c0,3.81-.11,7.17.02,10.52.58,14.67,6.62,26.58,18.36,35.44,1.67,1.26,3.87,2.03,5.94,2.52,3.6.86,7.28,1.46,10.96,1.95,4.94.65,9.77,2.29,14.93,1.09,4.89-1.15,9.92-1.72,14.87-2.63,1.89-.35,4.05-.45,5.57-1.46,17.31-11.51,22.21-29.27,20.14-47.43-2.26,0-4.55.05-6.84-.02-1.33-.04-1.95.36-2.44,1.73-2.59,7.15-8.6,11.12-15.9,10.75-7.01-.36-12.46-5-14.48-12.31-.18-.65-.47-1.77-.8-1.8-2.76-.28-5.54-.49-8.32-.45-2.27.04-1.81,2.22-2.35,3.58-.23.57-.42,1.16-.67,1.73-2.61,5.82-8.39,9.43-14.83,9.28-6.51-.16-11.99-4.12-14.43-10.3-.33-.83-1.13-2.01-1.8-2.07-2.52-.25-5.08-.1-7.93-.1ZM277.32,255.54c0,4.24-.07,8.47.02,12.71.09,4.11,2.38,6.38,6.44,6.52,2.2.07,4.42.08,6.62,0,6.28-.24,10.81-4.62,11.03-10.93.18-5.38.19-10.77,0-16.15-.22-6.3-4.77-10.66-11.06-10.9-2.03-.08-4.06-.05-6.09-.02-4.54.08-6.87,2.34-6.94,6.85-.06,3.97-.01,7.94,0,11.92ZM112.45,256.07c0-4.24.07-8.47-.02-12.71-.09-4.22-2.45-6.47-6.67-6.56-2.03-.04-4.06-.04-6.09,0-6.43.13-11.1,4.51-11.32,10.9-.19,5.38-.18,10.77,0,16.15.21,6.28,4.71,10.64,11.04,10.94,2.03.1,4.06.06,6.09.02,4.66-.08,6.92-2.37,6.98-7.09.04-3.88,0-7.77,0-11.65ZM142.8,125.21c-5.81-.17-10.2,2.03-13.01,6.84-2.88,4.93-2.71,10.03.5,14.76,2.92,4.31,7.12,6.31,12.51,5.97v-27.57ZM247.03,125.37v27.34c8.12.63,14.78-5.53,14.84-13.53.05-8.17-6.59-14.42-14.84-13.8ZM164.53,138.06c-.1,5.33,3.91,9.53,9.18,9.62,5.19.08,9.4-3.88,9.55-8.99.16-5.3-3.86-9.63-9.06-9.76-5.3-.13-9.57,3.9-9.67,9.14ZM206.5,138.18c-.05,5.3,4.03,9.47,9.3,9.5,5.18.03,9.32-3.98,9.43-9.11.11-5.29-3.95-9.57-9.17-9.65-5.28-.08-9.51,4.01-9.56,9.25ZM233.44,91.43c6.7,7.76,10.96,16.33,12.66,26.12.09.5.99,1.1,1.59,1.22,1.07.2,2.21.06,3.5.06,0-4.9,0-9.57,0-14.23,0-.79,0-1.59-.09-2.38-.96-7.82-7.84-12.15-17.66-10.79ZM138.65,118.77c4.61.18,4.62.19,5.54-3.82,1.73-7.6,4.99-14.48,9.75-20.64.72-.94,1.46-1.87,2.45-3.13-2.41,0-4.33-.12-6.23.02-5.87.42-11.05,5.16-11.43,11-.36,5.44-.08,10.91-.08,16.57Z"/>
  <path class="cls-1" d="M263.37,279.98c0,2.3.05,4.6-.02,6.9-.11,3.68-2.33,6.51-5.92,7.14-13.49,2.38-26.98,4.72-40.5,6.92-4.75.78-7.48-1.66-7.58-6.45-.09-4.24-.08-8.49,0-12.74.08-4.42,2.45-7.13,6.75-7.87,13.15-2.26,26.3-4.51,39.45-6.76,4.74-.81,7.74,1.67,7.82,6.48.03,2.12,0,4.25,0,6.37ZM256.99,273.39c-3.23.54-6.18,1.03-9.14,1.53-10,1.72-20,3.42-29.99,5.22-.77.14-2.02.92-2.04,1.45-.17,4.28-.09,8.57-.09,13.1,1.51-.25,2.63-.42,3.75-.61,11.75-1.99,23.49-3.95,35.23-6.02.83-.15,2.16-1.03,2.18-1.61.19-4.3.1-8.61.1-13.06Z"/>
  <path class="cls-1" d="M272.37,205.74c-.22,1.7-1.4,2.59-3.29,2.9-10.09,1.7-20.17,3.47-30.26,5.2-7.83,1.34-15.66,2.63-23.48,4.02-2.2.39-3.94.12-4.6-2.27-.57-2.07.65-3.48,3.43-3.97,17.99-3.12,35.99-6.22,53.99-9.3,2.46-.42,4.26.99,4.2,3.41Z"/>
  <path class="cls-1" d="M213.42,238.9c-.92-1.06-2.34-2-2.64-3.22-.56-2.26,1.1-3.32,3.16-3.68,6.27-1.08,12.54-2.14,18.81-3.21,11.15-1.91,22.29-3.81,33.44-5.72.78-.13,1.57-.24,2.36-.33,1.96-.22,3.38.57,3.74,2.52.36,1.96-.71,3.26-2.63,3.64-3.29.66-6.6,1.21-9.91,1.78-14.63,2.51-29.26,5.01-43.89,7.51-.61.1-1.23.14-1.84.21-.2.17-.4.33-.6.5Z"/>
  <path class="cls-1" d="M266.14,247.66c-.14,1.72-1.39,2.56-3.26,2.87-10.28,1.74-20.55,3.51-30.82,5.27-5.66.97-11.33,1.89-16.98,2.91-2.13.38-3.74-.07-4.34-2.3-.54-2.01.6-3.47,3.18-3.92,16.01-2.79,32.03-5.55,48.05-8.27,2.54-.43,4.23.93,4.17,3.44Z"/>
  <path class="cls-1" d="M175.21,226.94c0,2.47.08,4.95-.02,7.42-.17,4.27-3.21,6.89-7.43,6.2-14.89-2.47-29.76-5.01-44.63-7.6-3.75-.65-6.23-3.64-6.29-7.45-.09-5.03-.09-10.07,0-15.1.08-4.51,3.3-7.07,7.8-6.31,14.18,2.4,28.37,4.8,42.54,7.23,5.86,1,8.03,3.6,8.04,9.52,0,2.03,0,4.06,0,6.1h-.01ZM123.18,210.29c0,4.68.17,9.01-.06,13.32-.13,2.5.97,3.17,3.12,3.52,8.11,1.31,16.19,2.75,24.29,4.12,6,1.02,12,2.01,18.32,3.06,0-4.05.02-7.83,0-11.61-.02-4.81.62-4.6-4.3-5.33-1.13-.17-2.26-.4-3.39-.6-12.53-2.14-25.06-4.28-37.97-6.48Z"/>
  <path class="cls-1" d="M176.29,293.73c.02,2.35-1.79,3.69-4.26,3.28-9.39-1.59-18.78-3.21-28.17-4.82-7.48-1.29-14.94-2.61-22.43-3.86-2.22-.37-3.7-1.34-3.44-3.78.22-2.05,2.03-2.9,4.72-2.44,16.17,2.76,32.35,5.5,48.52,8.28,2.2.38,4.79.37,5.06,3.35Z"/>
  <path class="cls-1" d="M176.29,255.46c-.04,2.39-1.8,3.63-4.34,3.2-11.32-1.91-22.63-3.84-33.94-5.77-3.57-.61-7.13-1.26-10.7-1.83-2.11-.33-3.52-1.31-3.41-3.59.1-2.02,1.85-3.14,4.32-2.72,14.88,2.53,29.75,5.11,44.63,7.65,1.95.33,3.31,1.17,3.43,3.08Z"/>
  <path class="cls-1" d="M127.62,263.79c8.7,1.49,17.41,2.97,26.11,4.45,5.74.98,11.49,1.97,17.23,2.95.78.13,1.56.3,2.34.44,2.06.36,3.27,1.59,2.9,3.67-.4,2.2-2.01,2.92-4.18,2.54-10.35-1.79-20.71-3.55-31.06-5.32-4.7-.8-9.4-1.59-14.09-2.43-2.02-.36-3.25-1.59-2.91-3.69.31-1.94,1.71-2.78,3.67-2.63Z"/>
  <path class="cls-1" d="M194.85,177.63c-4.32-1.27-8.53-2.42-12.66-3.78-2.03-.67-3.01-2.32-2.1-4.4.93-2.14,2.78-2.28,4.68-1.37,6.71,3.21,13.4,3.28,20.12.04,1.88-.91,3.66-.84,4.76,1.22.93,1.75.11,3.75-2.23,4.56-4.04,1.39-8.19,2.45-12.56,3.73Z"/>
</svg>