<?xml version="1.0" encoding="UTF-8"?>
<svg id="Layer_1" xmlns="http://www.w3.org/2000/svg" viewBox="0 0 414 412.8">
  <defs>
    <style>
      .cls-1 {
        fill: #a37d7b;
      }
    </style>
  </defs>
  <path class="cls-1" d="M113.66,314.91c-2.12-.51-4.18-.74-6.03-1.49-6-2.42-9.46-6.92-10.24-13.38-.15-1.26-.17-2.54-.17-3.8,0-65.74,0-131.49,0-197.23,0-9.41,4.58-15.84,12.74-17.79,1.54-.37,3.19-.44,4.78-.44,48.12-.02,96.24-.03,144.37,0,8.87,0,15.05,4.53,17.02,12.33.31,1.22.42,2.49.65,3.94.75.15,1.55.32,2.35.45,8.44,1.37,14.05,7.79,14.07,16.35.04,21.1.02,42.19.02,63.29,0,19.66,0,39.31,0,58.97v2.97c5.59-.26,10.9-.5,16.21-.76,6.68-.33,13.36-.74,20.05-.98,9.43-.35,16.9,6.67,17.33,16.16.42,9.22-6.74,17.38-16.01,17.54-8.03.13-16.08-.54-24.12-.76-4.38-.12-8.76-.02-13.45-.02,0,.53,0,1.44,0,2.34,0,13.73.01,27.45,0,41.18-.01,10.57-6.68,17.34-17.29,17.35-48.29.04-96.58.04-144.88,0-10.08,0-16.13-5.72-17.39-16.19ZM177.71,103.23c0,1.24,0,2.15,0,3.07,0,11.86.03,23.72-.01,35.58-.04,10.51-6.87,17.29-17.4,17.3-12.54.02-25.07,0-37.61,0-.9,0-1.8,0-2.86,0,0,1.34,0,2.35,0,3.35,0,37.78,0,75.56,0,113.34,0,12.37.05,24.74-.1,37.1-.1,8.06,3.87,12.29,12,12.29,47.86,0,95.72,0,143.58,0,7.9,0,11.94-4,11.95-11.83.02-13.81,0-27.62,0-41.42,0-.82-.08-1.63-.14-2.59-3.66-.18-7.1-.34-10.53-.51-.36,1.02-.65,1.82-.93,2.61-9.13,25.92-36.02,40.19-63.07,33.47-25.68-6.37-42.66-32.06-38.75-58.62,5.37-36.51,45.75-56.39,77.93-38.29,11.86,6.67,19.92,16.58,24.27,29.5.29.87,1.17,2.18,1.79,2.19,3.09.04,6.19-.28,9.33-.47.04-.92.1-1.59.1-2.26,0-40.83.01-81.66,0-122.49,0-7.26-4.13-11.34-11.35-11.34-31.85,0-63.7,0-95.55,0-.75,0-1.5,0-2.65,0ZM270.66,96.93c-.67-6.94-4.73-10.32-11.86-10.32-47.7,0-95.39,0-143.09,0-8.56,0-12.59,4.03-12.59,12.59,0,65.66,0,131.32,0,196.97,0,.93-.04,1.87.04,2.79.46,5.69,5.13,9.91,10.61,9.43v-3c0-48.71.04-97.43-.05-146.14-.01-5.74,1.98-10.26,5.98-14.22,14.02-13.89,28.04-27.79,41.91-41.83,4.26-4.31,9.08-6.34,15.16-6.32,30.16.11,60.32.05,90.48.05h3.42ZM225.89,300.78c25.87.05,46.69-20.62,46.85-46.52.16-25.96-20.63-46.85-46.66-46.89-26-.04-46.7,20.51-46.79,46.45-.09,26.08,20.58,46.9,46.6,46.96ZM121.37,153.06c.59.08,1.14.21,1.69.21,12.62,0,25.24.08,37.85-.03,6.78-.06,10.79-4.32,10.81-11.11.03-12.11,0-24.22,0-36.33,0-.62-.07-1.25-.11-1.93-3.26,1.14-48.79,45.75-50.25,49.19ZM278.64,263.04c.77.06,1.69.17,2.61.21,8.21.36,16.41.72,24.62,1.07,7.78.33,15.56.79,23.35.96,6.8.15,11.99-5.16,11.72-11.63-.27-6.38-5.46-10.82-12.19-10.47-13.02.68-26.05,1.32-39.07,1.99-3.7.19-7.4.43-11.04.64v17.23Z"/>
  <path class="cls-1" d="M220.61,137.01c0-2.76-.02-5.61,0-8.45.04-4.7,2.14-6.79,6.86-6.84,2.2-.02,4.41-.08,6.6.03,3.7.18,5.75,2.29,5.83,5.97.07,2.95.01,5.9.01,9.48,2.6-1.49,4.82-2.76,7.03-4.04,5.51-3.2,7.6-2.65,10.84,2.86.82,1.38,1.66,2.76,2.43,4.16,1.86,3.36,1.14,6.26-2.11,8.25-2.87,1.76-5.8,3.42-9.22,5.42,2.75,1.59,5.11,2.95,7.47,4.3,5,2.87,5.65,5.35,2.73,10.32-.9,1.53-1.77,3.09-2.71,4.59-1.96,3.12-4.82,3.89-8.07,2.15-2.66-1.43-5.27-2.94-8.39-4.69,0,3.37.02,6.29,0,9.2-.04,4.59-2.06,6.63-6.67,6.71-2.2.04-4.41.08-6.6-.02-3.8-.18-5.88-2.33-6.03-6.13-.06-1.61-.01-3.22-.02-4.83,0-1.6,0-3.2,0-5.24-2.78,1.54-5.25,2.93-7.73,4.29-3.99,2.2-6.63,1.51-8.95-2.36-1.13-1.89-2.28-3.77-3.31-5.7-1.69-3.16-.92-5.97,2.16-7.82,2.6-1.56,5.27-3.02,8.32-4.75-2.63-1.55-4.97-2.94-7.31-4.31-5.03-2.94-5.62-5.24-2.62-10.34.9-1.53,1.75-3.09,2.7-4.59,1.96-3.1,4.84-3.85,8.08-2.07,2.74,1.5,5.44,3.07,8.16,4.6.05.03.16-.04.5-.15ZM254.78,164.09c-2.61-1.49-5.04-2.86-7.44-4.25-5.44-3.14-5.45-8.71-.02-11.94,2.6-1.54,5.2-3.07,7.88-4.64-1.23-2.09-2.34-3.96-3.53-5.97-2.8,1.62-5.42,3.14-8.04,4.65-5.22,3-9.47.53-9.52-5.54-.02-2.85,0-5.7,0-8.61h-7.52c0,3.25.04,6.37,0,9.48-.09,5.54-4.36,8-9.18,5.28-2.78-1.56-5.52-3.2-8.43-4.89-1.2,2.05-2.31,3.93-3.52,5.99,2.77,1.63,5.38,3.16,7.98,4.71,4.94,2.96,4.94,8.14-.01,11.02-2.46,1.43-4.95,2.82-7.57,4.32,1.23,2.09,2.32,3.96,3.52,5.98,2.76-1.55,5.31-3.01,7.88-4.42,4.95-2.71,9.29-.18,9.35,5.47.03,3.18,0,6.37,0,9.59h7.52c0-2.17.18-4.2-.03-6.19-.97-8.96,4.15-12.66,11.88-7.08,1.61,1.16,3.47,1.98,5.34,3.03,1.23-2.12,2.32-4,3.49-6.01Z"/>
  <path class="cls-1" d="M166.44,204.94c-6.09,0-12.18-.02-18.27.01-2.08.01-3.77-.45-3.94-2.89-.13-1.92,1.23-3.05,3.8-3.06,12.35-.03,24.7-.02,37.05,0,2.02,0,3.8.44,3.94,2.93.11,2.01-1.25,3-4.05,3.01-6.17.01-12.35,0-18.52,0Z"/>
  <path class="cls-1" d="M162.14,300.77c-4.65,0-9.29,0-13.94,0-2.03,0-3.8-.37-3.97-2.86-.14-2.01,1.25-3.03,4.01-3.04,9.38-.01,18.75.01,28.13-.02,2.08,0,3.77.42,3.98,2.85.17,1.97-1.27,3.04-4.02,3.05-4.73.02-9.46,0-14.19,0Z"/>
  <path class="cls-1" d="M156.71,228.97c-3.04,0-6.08.01-9.12,0-1.95,0-3.36-.79-3.35-2.92,0-2.11,1.38-2.92,3.35-2.92,6.25,0,12.49,0,18.74,0,1.97,0,3.35.8,3.35,2.91,0,2.13-1.41,2.91-3.35,2.92-3.21.01-6.41,0-9.62,0Z"/>
  <path class="cls-1" d="M155.44,276.68c-2.62,0-5.24,0-7.86,0-1.97,0-3.34-.82-3.34-2.93,0-2.13,1.42-2.9,3.37-2.91,5.15,0,10.31,0,15.46,0,2.06,0,3.57.83,3.48,3.06-.08,2.07-1.56,2.81-3.51,2.78-2.53-.03-5.07,0-7.6,0Z"/>
  <path class="cls-1" d="M153.89,253.11c-2.12,0-4.23.06-6.35-.02-1.92-.06-3.34-.9-3.3-3.04.05-2.12,1.45-2.91,3.4-2.92,4.23-.01,8.47,0,12.7,0,1.97,0,3.38.84,3.44,2.9.06,2.08-1.35,3.01-3.29,3.07-2.2.07-4.4.02-6.6.02Z"/>
  <path class="cls-1" d="M262.8,254.15c-.02,20.36-16.46,36.74-36.86,36.73-20.17-.01-36.91-16.76-36.86-36.9.05-20.12,16.86-36.86,36.98-36.82,20.17.04,36.76,16.74,36.74,36.99ZM226,223.14c-16.96,0-30.92,13.93-30.94,30.85-.01,16.92,13.9,30.92,30.82,31.02,17.05.1,31.13-13.93,31.09-30.99-.04-16.88-14.09-30.89-30.97-30.88Z"/>
  <path class="cls-1" d="M217.1,263.92c7.49-7.5,14.91-14.93,22.32-22.35.6-.6,1.17-1.54,1.86-1.65,1.19-.19,2.9-.3,3.6.38.67.66.49,2.36.39,3.57-.05.53-.83,1.01-1.31,1.49-7.96,7.96-15.91,15.93-23.88,23.88-2.6,2.6-3.72,2.59-6.32,0-3.12-3.1-6.23-6.22-9.34-9.34-2.06-2.06-2.37-3.86-.95-5.22,1.48-1.41,2.96-1.1,5.2,1.13,2.58,2.57,5.16,5.14,7.74,7.7.11.11.28.16.69.39Z"/>
</svg>