<?xml version="1.0" encoding="UTF-8"?>
<svg id="Layer_1" xmlns="http://www.w3.org/2000/svg" viewBox="0 0 414 412.8">
  <defs>
    <style>
      .cls-1 {
        fill: #7c6439;
      }
    </style>
  </defs>
  <path class="cls-1" d="M104.27,329.1c-.75-1.4-2.22-2.85-2.15-4.2.78-13.53-2.75-26.5-4.82-39.65-.07-.47-.18-.94-.23-1.42-.31-2.73.71-4.39,2.85-4.7,2.21-.32,3.77.93,4.25,3.53.7,3.77,1.33,7.56,1.99,11.33.76,4.33,1.71,8.63,2.24,12.99.58,4.82.77,9.68,1.15,14.73h48.17c0-2.47-.21-5.03.07-7.53.23-2.07.79-4.19,1.66-6.07,2.28-4.99,4.88-9.82,7.2-14.79.92-1.99.45-3.78-.98-5.71-5.38-7.24-6.33-15.31-3.75-23.9.33-1.1.32-2.53-.08-3.6-9.08-24.14-18.24-48.25-27.4-72.36-1.92-5.07-5.86-7.69-10.61-7.15-4.67.53-8.28,3.96-8.72,8.76-.16,1.82.28,3.83.92,5.58,4.7,12.82,9.53,25.59,14.32,38.38.17.45.35.89.5,1.35.73,2.29-.07,4.24-2.01,4.96-1.93.71-3.85-.22-4.72-2.5-3.29-8.66-6.51-17.34-9.76-26.02-1.74-4.64-3.5-9.26-5.21-13.91-3.06-8.32-.82-15.72,6.18-21.05.67-.51,1.23-1.65,1.24-2.5.07-19.28.08-38.56.04-57.85-.01-6.22-4.15-10.66-9.86-10.79-5.75-.13-9.91,4.29-10.18,10.69-1.36,31.89-2.92,63.77-3.97,95.67-.21,6.2,1.36,12.5,2.38,18.7,1.86,11.27,3.93,22.51,5.91,33.77.1.55.18,1.11.22,1.66.13,2.12-1.04,3.72-2.93,4.03-1.89.31-3.62-.76-4.04-2.86-1-5.01-1.86-10.06-2.74-15.09-2-11.41-3.99-22.83-5.96-34.24-.18-1.02-.31-2.06-.27-3.09.86-20.46,1.75-40.92,2.62-61.38.55-12.79,1.1-25.58,1.63-38.36.37-8.88,6.84-15.69,15.85-16.62,8-.83,15.84,4.73,17.89,12.86.48,1.91.62,3.95.63,5.94.05,17.84.03,35.68.03,53.53,0,.95,0,1.89,0,2.9,1.79.23,3.4.28,4.93.66,6.11,1.54,10.2,5.37,12.37,11.28,3.23,8.77,6.45,17.53,9.69,26.3.3.81.64,1.61,1.02,2.56,8.8-2.35,17.49-4.66,26.17-6.99,2.54-.68,5.11-1.28,7.6-2.12.67-.22,1.54-1.16,1.56-1.79.14-4.24.12-8.48.03-12.72-.01-.64-.49-1.54-1.03-1.87-12.41-7.81-19.18-19.08-20.67-33.74-.91-.2-1.84-.36-2.74-.61-5.32-1.46-9.43-5.77-9.62-11.27-.29-8.62-.5-17.31.21-25.89.86-10.23,10.51-18.61,20.83-19.27,1-.06,2.23-.47,2.91-1.16,6.94-7.12,15.26-11.44,25.11-12.8.29-.04.55-.26.83-.4,3.19,0,6.39,0,9.58,0,.28.14.54.36.83.39,9.86,1.33,18.16,5.69,25.11,12.79.67.69,1.9,1.1,2.9,1.17,10.32.66,19.97,9.02,20.83,19.26.72,8.66.55,17.43.16,26.12-.25,5.52-3.86,9.11-9.1,10.89-1.04.35-2.13.52-3.2.77-1.49,14.64-8.26,25.91-20.66,33.73-.58.36-1.01,1.38-1.04,2.11-.12,2.63-.05,5.28-.05,7.92q0,5.96,5.76,7.52c9.84,2.64,19.68,5.26,29.64,7.92.38-.94.72-1.74,1.02-2.54,3.23-8.76,6.46-17.53,9.69-26.3,2.21-5.99,6.36-9.85,12.61-11.31,1.46-.34,2.98-.4,4.69-.62,0-1.02,0-1.96,0-2.91,0-17.52,0-35.04,0-52.56,0-.72-.01-1.44,0-2.16.21-10.01,7.52-17.57,17.09-17.67,9.54-.1,16.95,7.37,17.32,17.4.2,5.36.5,10.71.75,16.06.15,3.28.29,6.55.39,9.83.07,2.53-1.15,4.06-3.26,4.21-2.18.16-3.56-1.12-3.86-3.63-.09-.71-.13-1.43-.16-2.15-.35-8.07-.71-16.14-1.04-24.21-.24-6.01-4.47-10.36-10.07-10.31-5.51.05-9.9,4.36-9.93,10.21-.09,19.6-.05,39.2,0,58.8,0,.66.43,1.53.95,1.95,7.8,6.27,9.61,12.81,6.08,22.26-4.67,12.49-9.34,24.98-14.02,37.46-.31.82-.58,1.68-1.04,2.41-.96,1.55-2.45,2.1-4.14,1.52-1.68-.57-2.59-1.88-2.38-3.71.1-.86.43-1.7.74-2.51,4.78-12.79,9.6-25.56,14.31-38.38.64-1.75,1.12-3.75.98-5.58-.38-4.82-3.95-8.28-8.62-8.85-4.77-.58-8.78,2.01-10.68,7.03-9.19,24.18-18.37,48.36-27.48,72.58-.4,1.06-.33,2.48,0,3.6,2.45,8.33,1.69,16.24-3.46,23.29-1.82,2.49-2.04,4.71-1.1,7.28.79,2.17,1.69,4.31,2.76,6.35,1.45,2.75,3.24,5.33,4.66,8.1.7,1.36,1.13,2.98,1.24,4.51.19,2.77.06,5.56.06,8.43h48.52c0-1.23-.02-2.33,0-3.44.05-2.72-.22-5.49.24-8.14,4.6-26.69,9.34-53.36,14-80.04.95-5.42,2.16-10.85,2.5-16.32.32-5.16-.36-10.38-.58-15.57-.55-12.95-1.12-25.89-1.63-38.84-.1-2.63,1.29-4.2,3.48-4.24,2.2-.04,3.57,1.46,3.69,4.09.5,11.83.96,23.66,1.5,35.48.22,4.94.59,9.87.89,14.8v7.68c-.16.43-.4.85-.47,1.29-4.14,23.43-8.32,46.85-12.36,70.29-2.06,11.94-4.95,23.78-4.19,36.08.08,1.35-1.39,2.8-2.14,4.2h-58.46c-1.84-1.37-2.28-3.25-2.2-5.45.11-3.04.05-6.08,0-9.12-.01-.78-.07-1.65-.42-2.31-2.81-5.22-5.69-10.4-8.59-15.66-1.57,1.56-3.29,3.32-5.07,5.02-.62.59-1.32,1.25-2.11,1.5-1.68.53-3.19.05-4.12-1.54-.99-1.69-.59-3.24.72-4.58,3.87-3.93,7.85-7.75,11.62-11.77,6-6.39,6.86-15.78,2.27-23.04-4.62-7.31-13.47-10.57-21.74-7.88-5.64,1.83-9.55,5.59-11.82,11.1-1.09,2.65-3.27,3.73-5.23,2.42-.96-.65-1.66-1.89-2.16-3-3.4-7.64-11.39-12.38-19.3-11.32-7.73,1.04-13.23,5.1-15.81,12.5-2.6,7.47-.92,14.22,4.63,19.85,10.94,11.1,21.94,22.13,32.93,33.18.43.43.93.79,1.41,1.19,3.63-3.61,7.11-7.12,10.65-10.58,2.02-1.97,4.41-1.98,5.8-.04,1.35,1.9.8,3.61-.73,5.14-4.78,4.79-9.56,9.59-14.34,14.39h-2.88c-10.95-10.88-21.9-21.77-32.76-32.55-1.18,2.54-1.99,5.34-3.61,7.54-4.36,5.91-5.94,12.37-5.06,19.57.27,2.19-.34,4.07-2.17,5.45h-58.46ZM172.87,131.33c0,8.47-.64,16.76.14,24.92,1.58,16.49,15.78,29.85,31.74,30.76,17.92,1.03,33.56-9.69,36.87-26.76,1.82-9.36,1.21-19.2,1.68-28.73-1.3-.31-1.92-.46-2.54-.61-5.4-1.26-9.44-4.53-10.09-9.95-.83-6.85-1.75-13.94,1.24-20.71-13.84-13.76-36.55-12.31-48.4.22.54,1.16,1.51,2.31,1.53,3.46.07,5.89.56,11.91-.4,17.65-1,5.97-5.85,8.83-11.77,9.74ZM221.07,247.26c10.71-2.59,19.61-.22,27.04,7.1,5.15-11.25,10.3-22.25,7.3-35.23-5.14-1.37-10.73-2.86-16.32-4.35-6,10.83-11.88,21.43-18.01,32.49ZM176.47,214.79c-5.28,1.4-10.29,2.69-15.27,4.08-.62.17-1.57.87-1.58,1.34-.08,5.03-.91,10.28.26,15.03,1.62,6.55,4.78,12.73,7.39,19.32,7.73-7.61,16.65-9.88,27.2-7.3-6.12-11.04-12.03-21.69-18-32.47ZM207.73,219.05c4.38-4.37,8.56-8.51,12.69-12.71.4-.4.68-1.1.69-1.67.06-4.06.03-8.13.03-11.91-4.53.52-8.93,1.43-13.33,1.43-4.44,0-8.88-.9-13.42-1.42,0,3.82-.04,7.81.04,11.79.01.63.35,1.41.79,1.86,4.06,4.16,8.18,8.27,12.5,12.62ZM160.23,125.11c1.97-.36,3.74-.81,5.53-.98,1.82-.17,3.66-.05,5.49-.08,4.55-.07,6.85-2.38,6.91-6.97.03-2.63,0-5.26,0-7.89,0-4.67-.44-5.03-5.08-4.15-.16.03-.31.08-.46.11-8.88,1.98-13.72,9.76-12.39,19.95ZM255.32,124.7c0-1.73.19-3.87-.03-5.97-.84-7.9-7.45-13.75-15.37-13.93-2.05-.05-2.64.7-2.57,2.63.11,3.11.02,6.22.03,9.33.03,5.03,2.27,7.18,7.3,7.31,3.46.09,6.92.4,10.63.62ZM207.78,229.58c-2.36,2.62-4.54,5.04-6.72,7.46q-2.49,2.77-.62,6.12c2.38,4.28,4.75,8.57,7.34,13.22,3.05-5.5,5.88-10.55,8.63-15.66.24-.44.07-1.41-.27-1.81-2.66-3.08-5.41-6.07-8.35-9.34ZM220.67,233.13c3.79-6.84,7.45-13.43,11.23-20.24-1.89-.52-3.47-1.06-5.09-1.35-.58-.1-1.43.2-1.87.62-4.06,3.94-8.06,7.96-12.24,12.1,2.68,2.98,5.21,5.8,7.97,8.86ZM183.65,212.9c3.67,6.62,7.18,12.95,10.7,19.27.15.26.4.46.69.78,2.61-2.9,5.14-5.72,7.77-8.65-4.16-4.17-8.13-8.19-12.18-12.12-.47-.45-1.43-.71-2.08-.6-1.54.26-3.04.8-4.9,1.32ZM165.35,131.55c-4.17.69-5.51,3.01-5.32,8.96.13,3.95,1.86,6.11,5.32,6.48v-15.44ZM250.15,147.07c4.22-.69,5.58-3.08,5.36-9.05-.14-3.91-1.92-6.07-5.36-6.41v15.46Z"/>
  <path class="cls-1" d="M223.79,152.56c-5.83-.05-10.29-3.21-11.72-8.28-.68-2.41-2.2-3.26-4.3-3.27-2.11,0-3.62.87-4.3,3.26-1.54,5.4-6.41,8.58-12.02,8.24-5.33-.32-9.69-4.2-10.79-9.61-1.03-5.08,1.65-10.41,6.41-12.75,4.9-2.41,10.55-1.32,14.09,2.92,1.07,1.28,1.87,1.58,3.55,1.2,1.95-.44,4.15-.44,6.1,0,1.68.38,2.49.09,3.56-1.19,3.38-4.05,8.63-5.23,13.44-3.25,4.58,1.88,7.53,6.62,7.24,11.64-.28,4.96-3.75,9.28-8.62,10.64-1.06.3-2.19.36-2.65.43ZM192.2,136.13c-2.47.04-4.54,2.17-4.54,4.64,0,2.61,2.16,4.65,4.81,4.56,2.55-.09,4.44-2.12,4.37-4.71-.07-2.53-2.14-4.54-4.64-4.49ZM218.7,140.63c-.06,2.6,1.82,4.61,4.38,4.7,2.65.09,4.79-1.96,4.8-4.57,0-2.48-2.08-4.59-4.55-4.63-2.5-.04-4.57,1.97-4.63,4.51Z"/>
</svg>