<?xml version="1.0" encoding="UTF-8"?>
<svg id="Layer_1" xmlns="http://www.w3.org/2000/svg" viewBox="0 0 588.4 586.7">
  <defs>
    <style>
      .cls-1 {
        fill: #f47a7a;
      }

      .cls-2 {
        fill: #c7e8f9;
      }

      .cls-3 {
        fill: #4b4b4d;
      }

      .cls-4 {
        fill: #fdd05e;
      }

      .cls-5 {
        fill: #efcac2;
      }

      .cls-6 {
        fill: #208f55;
      }

      .cls-7 {
        fill: #88c69f;
      }
    </style>
  </defs>
  <path class="cls-6" d="M140.02,282.36c0,7.26-1.05,13.91-3.16,19.94-2.11,6.03-5.15,11.19-9.14,15.46-3.98,4.28-8.76,7.59-14.32,9.93-5.56,2.34-11.8,3.51-18.71,3.51s-12.97-1.17-18.54-3.51c-5.56-2.34-10.34-5.65-14.32-9.93-3.98-4.28-7.09-9.43-9.31-15.46-2.23-6.03-3.34-12.68-3.34-19.94s1.14-13.88,3.43-19.85c2.28-5.97,5.45-11.07,9.49-15.29,4.04-4.22,8.84-7.5,14.41-9.84,5.56-2.34,11.62-3.51,18.19-3.51s12.8,1.17,18.36,3.51c5.56,2.34,10.34,5.62,14.32,9.84,3.98,4.21,7.09,9.31,9.31,15.29,2.23,5.97,3.34,12.59,3.34,19.85ZM113.31,282.36c0-8.08-1.61-14.44-4.83-19.06-3.22-4.63-7.82-6.94-13.79-6.94s-10.6,2.31-13.88,6.94c-3.28,4.63-4.92,10.98-4.92,19.06s1.64,14.5,4.92,19.24c3.28,4.74,7.91,7.11,13.88,7.11s10.57-2.37,13.79-7.11c3.22-4.75,4.83-11.16,4.83-19.24ZM116.3,203.12l-28.9,24.42-12.04-10.72,24.86-28.46,16.08,14.76h0Z"/>
  <path class="cls-7" d="M215.92,259.52c-2.34-.58-5.09-1.2-8.26-1.84-3.16-.65-6.56-.97-10.19-.97-1.64,0-3.6.15-5.88.44-2.28.29-4.01.61-5.18.97v70.63h-26.18v-87.5c4.68-1.64,10.22-3.19,16.6-4.66,6.38-1.46,13.5-2.2,21.35-2.2,1.4,0,3.1.09,5.09.27,1.99.18,3.98.41,5.97.7,1.99.29,3.98.65,5.97,1.06,1.99.41,3.69.91,5.09,1.49l-4.39,21.61Z"/>
  <path class="cls-4" d="M293.59,281.83c0-16.87-6.21-25.3-18.63-25.3-2.69,0-5.36.35-7.99,1.05-2.64.7-4.77,1.58-6.41,2.64v47.62c1.29.23,2.93.44,4.92.61,1.99.18,4.16.26,6.5.26,7.14,0,12.53-2.46,16.16-7.38,3.63-4.92,5.45-11.42,5.45-19.5h0ZM320.3,282.53c0,7.38-1.08,14.06-3.25,20.03-2.17,5.97-5.3,11.07-9.4,15.29-4.1,4.21-9.14,7.47-15.11,9.75-5.97,2.28-12.77,3.43-20.38,3.43-3.16,0-6.47-.15-9.93-.44-3.45-.29-6.85-.68-10.19-1.14-3.34-.47-6.53-1.03-9.58-1.67-3.04-.65-5.74-1.32-8.08-2.02v-129.14l26.18-4.22v46.03c2.93-1.29,5.97-2.28,9.14-2.99,3.16-.7,6.56-1.06,10.19-1.06,6.56,0,12.36,1.14,17.39,3.43,5.04,2.28,9.25,5.54,12.65,9.75,3.4,4.21,5.97,9.28,7.73,15.2,1.76,5.92,2.64,12.5,2.64,19.77h0Z"/>
  <path class="cls-5" d="M366.68,328.74h-26.18v-92.42h26.18v92.42ZM369.14,209.62c0,4.8-1.55,8.58-4.66,11.33-3.11,2.75-6.76,4.13-10.98,4.13s-7.88-1.37-10.98-4.13c-3.1-2.75-4.66-6.53-4.66-11.33s1.55-8.58,4.66-11.33c3.1-2.75,6.76-4.13,10.98-4.13s7.88,1.38,10.98,4.13c3.1,2.75,4.66,6.53,4.66,11.33Z"/>
  <path class="cls-1" d="M390.4,213.31l26.18-4.21v27.23h31.45v21.79h-31.45v32.5c0,5.51.97,9.9,2.9,13.18,1.93,3.28,5.83,4.92,11.69,4.92,2.81,0,5.71-.26,8.7-.79,2.99-.53,5.71-1.26,8.17-2.2l3.69,20.38c-3.16,1.29-6.68,2.4-10.54,3.34-3.87.94-8.61,1.4-14.23,1.4-7.14,0-13.06-.97-17.75-2.9-4.68-1.93-8.43-4.63-11.24-8.08-2.81-3.45-4.77-7.64-5.88-12.56-1.11-4.92-1.67-10.36-1.67-16.34v-77.66h0Z"/>
  <path class="cls-2" d="M501.1,310.47c2.58,0,5.04-.06,7.38-.18,2.34-.12,4.22-.29,5.62-.53v-19.86c-1.05-.23-2.63-.47-4.74-.7-2.11-.23-4.04-.35-5.8-.35-2.46,0-4.77.15-6.94.44-2.17.29-4.07.85-5.71,1.67-1.64.82-2.93,1.93-3.87,3.34-.94,1.4-1.4,3.16-1.4,5.27,0,4.1,1.38,6.94,4.13,8.52,2.75,1.58,6.53,2.37,11.33,2.37h0ZM498.99,233.87c7.73,0,14.17.88,19.33,2.63,5.15,1.76,9.28,4.28,12.39,7.56,3.1,3.28,5.3,7.26,6.59,11.95,1.29,4.69,1.93,9.9,1.93,15.64v54.47c-3.75.82-8.96,1.79-15.64,2.9-6.68,1.11-14.76,1.67-24.25,1.67-5.97,0-11.39-.53-16.25-1.58-4.86-1.06-9.05-2.78-12.56-5.18-3.51-2.4-6.21-5.54-8.08-9.4-1.87-3.87-2.81-8.61-2.81-14.23s1.08-9.96,3.25-13.71c2.16-3.75,5.06-6.73,8.7-8.96,3.63-2.23,7.79-3.84,12.47-4.83,4.69-1,9.55-1.49,14.58-1.49,3.4,0,6.41.15,9.05.44,2.64.29,4.77.68,6.41,1.14v-2.46c0-4.45-1.35-8.02-4.04-10.72-2.69-2.69-7.38-4.04-14.05-4.04-4.45,0-8.85.32-13.18.97-4.33.65-8.08,1.55-11.24,2.72l-3.34-21.08c1.52-.47,3.43-.97,5.71-1.49,2.28-.53,4.77-1,7.47-1.41,2.7-.41,5.54-.76,8.52-1.05,2.99-.29,6-.44,9.05-.44h0Z"/>
  <path class="cls-3" d="M53.38,379.7c0-2.62.41-5.07,1.22-7.36.81-2.28,1.98-4.26,3.49-5.93,1.51-1.67,3.35-2.98,5.52-3.93,2.17-.95,4.61-1.42,7.32-1.42,3.34,0,6.51.61,9.49,1.83l-1.76,6.71c-.95-.41-2.03-.74-3.22-1.02-1.2-.27-2.47-.41-3.83-.41-3.21,0-5.65,1.01-7.32,3.02-1.67,2.01-2.51,4.85-2.51,8.51s.79,6.31,2.37,8.37c1.58,2.05,4.25,3.08,8,3.08,1.4,0,2.78-.13,4.14-.41,1.36-.27,2.53-.61,3.52-1.02l1.15,6.78c-.9.45-2.27.86-4.1,1.22-1.83.36-3.72.54-5.66.54-3.03,0-5.66-.46-7.9-1.39-2.24-.93-4.09-2.22-5.56-3.86-1.47-1.65-2.57-3.62-3.29-5.9-.72-2.28-1.08-4.76-1.08-7.42ZM116.42,396.31c-1.58.41-3.64.83-6.17,1.25-2.53.43-5.31.64-8.34.64-2.85,0-5.23-.41-7.15-1.22-1.92-.81-3.46-1.94-4.61-3.39-1.16-1.45-1.98-3.17-2.47-5.18s-.74-4.22-.74-6.61v-19.86h8.2v18.57c0,3.8.55,6.51,1.66,8.13,1.1,1.63,3.04,2.44,5.79,2.44.99,0,2.04-.04,3.15-.13,1.11-.09,1.93-.21,2.47-.34v-28.67h8.2v34.37h0ZM135.13,397.39h-8.2v-35.45h8.2v35.45ZM136.01,351.57c0,1.54-.5,2.76-1.49,3.66-.99.9-2.17,1.35-3.52,1.35s-2.6-.45-3.59-1.35c-.99-.91-1.49-2.13-1.49-3.66s.5-2.82,1.49-3.73c.99-.91,2.19-1.36,3.59-1.36s2.53.45,3.52,1.36c1,.9,1.49,2.14,1.49,3.73ZM152.01,379.57c0,3.61.86,6.45,2.57,8.51,1.72,2.05,4.09,3.08,7.12,3.08,1.31,0,2.43-.05,3.36-.17.93-.11,1.68-.24,2.27-.37v-20.34c-.72-.5-1.68-.96-2.88-1.39-1.19-.43-2.47-.64-3.83-.64-2.98,0-5.16,1.02-6.54,3.05-1.38,2.03-2.07,4.79-2.07,8.27ZM175.54,396.31c-1.63.5-3.67.95-6.14,1.36-2.46.41-5.05.61-7.76.61s-5.31-.42-7.52-1.29c-2.22-.86-4.1-2.09-5.66-3.7-1.56-1.6-2.76-3.54-3.59-5.83-.84-2.28-1.26-4.85-1.26-7.7s.35-5.35,1.05-7.63c.7-2.28,1.73-4.24,3.09-5.86,1.36-1.63,3-2.88,4.95-3.76,1.94-.88,4.18-1.32,6.71-1.32,1.71,0,3.23.21,4.54.61,1.31.41,2.44.86,3.39,1.36v-17.01l8.21-1.36v51.52h0ZM198.44,391.63c2.53,0,4.45-.14,5.76-.41v-9.08c-.45-.14-1.1-.27-1.96-.41-.86-.14-1.81-.21-2.85-.21-.9,0-1.82.07-2.75.21-.93.13-1.76.38-2.51.74-.74.36-1.35.87-1.8,1.52-.45.65-.68,1.48-.68,2.47,0,1.94.61,3.29,1.83,4.04,1.22.74,2.87,1.12,4.95,1.12h0ZM197.77,361.06c2.71,0,5,.34,6.85,1.02,1.85.68,3.33,1.63,4.44,2.85s1.9,2.7,2.37,4.44c.47,1.74.71,3.65.71,5.73v21.49c-1.27.27-3.18.6-5.73.98-2.56.39-5.44.58-8.65.58-2.12,0-4.06-.2-5.83-.61-1.76-.41-3.27-1.06-4.51-1.96-1.24-.9-2.22-2.08-2.91-3.52-.7-1.45-1.05-3.23-1.05-5.35s.39-3.75,1.18-5.15,1.86-2.54,3.22-3.42c1.36-.88,2.93-1.51,4.71-1.9,1.78-.38,3.65-.58,5.59-.58.91,0,1.85.06,2.85.17,1,.11,2.06.31,3.19.57v-1.35c0-.95-.11-1.85-.34-2.71-.22-.86-.62-1.61-1.18-2.27-.56-.66-1.31-1.17-2.24-1.53-.93-.36-2.09-.54-3.49-.54-1.9,0-3.64.13-5.22.41-1.58.27-2.87.59-3.86.95l-1.02-6.64c1.04-.36,2.56-.73,4.54-1.08,1.99-.36,4.11-.54,6.37-.54h0ZM228.61,379.57c0,3.61.86,6.45,2.57,8.51,1.72,2.05,4.09,3.08,7.12,3.08,1.31,0,2.43-.05,3.36-.17.93-.11,1.68-.24,2.27-.37v-20.34c-.72-.5-1.68-.96-2.88-1.39-1.19-.43-2.47-.64-3.83-.64-2.98,0-5.16,1.02-6.54,3.05-1.38,2.03-2.07,4.79-2.07,8.27ZM252.14,396.31c-1.63.5-3.67.95-6.14,1.36-2.46.41-5.05.61-7.76.61s-5.31-.42-7.52-1.29c-2.22-.86-4.1-2.09-5.66-3.7-1.56-1.6-2.76-3.54-3.59-5.83-.84-2.28-1.26-4.85-1.26-7.7s.35-5.35,1.05-7.63c.7-2.28,1.73-4.24,3.09-5.86,1.36-1.63,3-2.88,4.95-3.76,1.94-.88,4.18-1.32,6.71-1.32,1.71,0,3.23.21,4.54.61,1.31.41,2.44.86,3.39,1.36v-17.01l8.21-1.36v51.52h0ZM294.64,379.63c0,2.8-.41,5.35-1.22,7.66-.81,2.31-1.96,4.27-3.46,5.9-1.49,1.63-3.29,2.89-5.39,3.8-2.1.9-4.42,1.36-6.95,1.36s-4.83-.45-6.91-1.36c-2.08-.9-3.86-2.17-5.35-3.8-1.49-1.63-2.66-3.59-3.49-5.9-.84-2.3-1.26-4.86-1.26-7.66s.42-5.35,1.26-7.63c.84-2.28,2.01-4.24,3.52-5.87,1.51-1.62,3.31-2.88,5.39-3.76,2.08-.88,4.36-1.32,6.84-1.32s4.78.44,6.88,1.32c2.1.88,3.9,2.13,5.39,3.76,1.49,1.63,2.66,3.58,3.49,5.87.84,2.28,1.26,4.82,1.26,7.63h0ZM286.23,379.63c0-3.52-.76-6.32-2.27-8.37-1.51-2.06-3.63-3.09-6.34-3.09s-4.82,1.03-6.34,3.09c-1.51,2.05-2.27,4.85-2.27,8.37s.76,6.39,2.27,8.47c1.51,2.08,3.63,3.12,6.34,3.12s4.82-1.04,6.34-3.12c1.51-2.08,2.27-4.91,2.27-8.47ZM316.94,379.83c0-3.12.46-5.85,1.39-8.2.93-2.35,2.16-4.3,3.7-5.87,1.53-1.56,3.3-2.73,5.29-3.52,1.99-.79,4.02-1.18,6.1-1.18,4.88,0,8.69,1.51,11.42,4.54,2.74,3.03,4.1,7.55,4.1,13.56,0,.45-.01.96-.03,1.53-.02.56-.06,1.07-.1,1.52h-23.39c.23,2.85,1.23,5.05,3.02,6.61,1.78,1.56,4.37,2.34,7.76,2.34,1.99,0,3.81-.18,5.45-.54,1.65-.36,2.95-.74,3.9-1.15l1.08,6.71c-.45.22-1.07.46-1.86.71-.79.25-1.7.47-2.71.67-1.02.21-2.11.38-3.29.51-1.17.13-2.37.2-3.59.2-3.12,0-5.83-.46-8.13-1.39-2.31-.93-4.2-2.22-5.69-3.86-1.49-1.65-2.6-3.6-3.32-5.83-.72-2.24-1.08-4.69-1.08-7.36h0ZM340.74,376.18c0-1.13-.16-2.2-.48-3.22s-.78-1.9-1.39-2.65c-.61-.74-1.36-1.33-2.24-1.76-.88-.43-1.93-.64-3.15-.64s-2.37.24-3.32.71c-.95.48-1.75,1.1-2.41,1.87-.65.77-1.17,1.65-1.52,2.64-.36.99-.61,2.01-.75,3.05h15.26ZM377.82,378.75c0-3.71-.46-6.38-1.39-8.03-.93-1.65-2.66-2.47-5.19-2.47-.9,0-1.9.07-2.98.21-1.08.13-1.9.25-2.44.34v28.61h-8.2v-34.3c1.58-.45,3.65-.88,6.2-1.29,2.56-.41,5.25-.61,8.1-.61,2.44,0,4.44.32,6,.95,1.56.64,2.86,1.47,3.9,2.51.5-.36,1.13-.74,1.9-1.15.77-.41,1.62-.78,2.57-1.12.95-.34,1.95-.62,3.02-.85,1.06-.22,2.13-.34,3.22-.34,2.76,0,5.02.4,6.81,1.19,1.79.79,3.19,1.9,4.2,3.32s1.71,3.14,2.1,5.15c.38,2.01.57,4.21.57,6.61v19.93h-8.2v-18.64c0-3.71-.45-6.38-1.36-8.03-.9-1.65-2.64-2.47-5.22-2.47-1.31,0-2.56.22-3.73.64-1.17.43-2.05.85-2.64,1.26.36,1.13.61,2.33.74,3.59.13,1.27.2,2.62.2,4.07v19.59h-8.2v-18.64h0ZM432.45,350.42h8.54v46.98h-8.54v-46.98ZM481.94,390v7.39h-29.69v-46.98h8.54v39.59h21.15ZM501.74,349.94c6.82,0,12.05,1.24,15.69,3.73,3.64,2.49,5.45,6.37,5.45,11.66,0,2.76-.48,5.12-1.46,7.08-.97,1.97-2.38,3.57-4.24,4.81-1.85,1.24-4.11,2.16-6.78,2.75-2.67.59-5.72.88-9.15.88h-4.27v16.54h-8.54v-46.3c1.99-.45,4.19-.76,6.61-.92,2.42-.16,4.64-.23,6.68-.23h0ZM502.34,357.33c-2.17,0-3.96.07-5.35.2v16h4.14c4.11,0,7.27-.57,9.49-1.72,2.21-1.16,3.32-3.33,3.32-6.54,0-1.54-.29-2.82-.88-3.86-.59-1.04-1.4-1.85-2.44-2.44-1.04-.59-2.27-1-3.7-1.25-1.42-.25-2.95-.37-4.58-.37h0ZM530.68,350.41h8.54v46.98h-8.54v-46.98Z"/>
</svg>